<?xml version="1.0" encoding="UTF-8" standalone="no"?>
<svg
   xmlns:dc="http://purl.org/dc/elements/1.1/"
   xmlns:cc="http://creativecommons.org/ns#"
   xmlns:rdf="http://www.w3.org/1999/02/22-rdf-syntax-ns#"
   xmlns:svg="http://www.w3.org/2000/svg"
   xmlns="http://www.w3.org/2000/svg"
   id="svg8"
   version="1.1"
   viewBox="0 0 1044.1605 629.70871"
   height="166.61043mm"
   width="276.26746mm">
  <defs
     id="defs2">
    <clipPath
       clipPathUnits="userSpaceOnUse"
       id="clipPath94">
      <path
         d="M 0,850.394 H 1417.323 V 0 H 0 Z"
         id="path92" />
    </clipPath>
    <clipPath
       clipPathUnits="userSpaceOnUse"
       id="clipPath114">
      <path
         d="M 0,850.394 H 1417.323 V 0 H 0 Z"
         id="path112" />
    </clipPath>
  </defs>
  <metadata
     id="metadata5">
    <rdf:RDF>
      <cc:Work
         rdf:about="">
        <dc:format>image/svg+xml</dc:format>
        <dc:type
           rdf:resource="http://purl.org/dc/dcmitype/StillImage" />
        <dc:title></dc:title>
      </cc:Work>
    </rdf:RDF>
  </metadata>
  <g
     transform="translate(185.86786,-154.14731)"
     id="layer1">
    <g
       transform="matrix(1.3333333,0,0,-1.3333333,260.45619,221.87115)"
       id="g116">
      <path
         id="path118"
         style="fill:none;stroke:#3d4899;stroke-width:1;stroke-linecap:butt;stroke-linejoin:miter;stroke-miterlimit:10;stroke-dasharray:none;stroke-opacity:1"
         d="m 0,0 -26.927,-22.829 c 0,0 -129.929,-116.962 -307.295,-108.182 l -0.021,-203.232 c 0,0 43.902,-2.927 108.878,-18.146 64.975,-15.22 220.097,-56.195 257.56,-68.488 l 24.622,51.01 24.622,-51.01 c 37.463,12.293 192.585,53.268 257.56,68.488 64.976,15.219 108.878,18.146 108.878,18.146 l -0.065,203.135 C 270.446,-139.889 140.561,-22.829 140.561,-22.829 L 113.634,0 56.854,-66.731 H 56.78" />
    </g>
    <g
       transform="matrix(1.3333333,0,0,-1.3333333,318.36312,290.39395)"
       id="g120">
      <path
         id="path122"
         style="fill:none;stroke:#3d4899;stroke-width:1;stroke-linecap:butt;stroke-linejoin:miter;stroke-miterlimit:10;stroke-dasharray:none;stroke-opacity:1"
         d="M 0,0 57.018,50.352 13.274,101.474 -43.43,51.392 -70.357,28.563 c 0,0 -129.93,-116.962 -307.295,-108.182 l -0.021,-203.232 c 0,0 43.902,-2.927 108.878,-18.146 64.975,-15.22 220.097,-56.195 257.56,-68.488 l 24.622,51.01 24.622,-51.01 c 37.463,12.293 192.585,53.268 257.56,68.488 64.975,15.219 108.878,18.146 108.878,18.146 l -0.066,203.135 C 227.016,-88.497 97.13,28.563 97.13,28.563 L 70.204,51.392 13.423,-15.339 H 13.35" />
    </g>
    <g
       transform="matrix(1.3333333,0,0,-1.3333333,336.16326,310.84635)"
       id="g124">
      <path
         id="path126"
         style="fill:none;stroke:#3d4899;stroke-width:1;stroke-linecap:butt;stroke-linejoin:miter;stroke-miterlimit:10;stroke-dasharray:none;stroke-opacity:1"
         d="M 0,0 -49.163,57.779" />
    </g>
  </g>
</svg>
